<svg width="512" height="512" xmlns="http://www.w3.org/2000/svg">
 <g>
  <title>Layer 1</title>
  <path stroke="null" fill="#ffffff" d="m474.03181,209.81079a126.81084,126.81084 0 0 0 -10.89875,-104.16031a128.25597,128.25597 0 0 0 -138.14112,-61.53878a126.81084,126.81084 0 0 0 -95.65005,-42.6416a128.26601,128.26601 0 0 0 -122.35499,88.80572a126.85098,126.85098 0 0 0 -84.80148,61.51871a128.27604,128.27604 0 0 0 15.77609,150.39468a126.81084,126.81084 0 0 0 10.89875,104.16031a128.26601,128.26601 0 0 0 138.14112,61.53878a126.81084,126.81084 0 0 0 95.65005,42.6416a128.26601,128.26601 0 0 0 122.39514,-88.8559a126.85098,126.85098 0 0 0 84.80148,-61.51871a128.27604,128.27604 0 0 0 -15.81623,-150.3445zm-407.68941,115.9723c0.75268,0.45161 2.06735,1.25446 3.0107,1.79639l-3.0107,-1.79639zm34.3722,-199.17811c0,0.8731 -0.05018,2.4186 -0.05018,3.49242l0.05018,-3.49242zm310.60425,258.7499c0,-0.88314 0,-2.42863 0,-3.50245l0,3.50245zm34.3722,-199.18815c-0.75268,-0.46164 -2.06735,-1.25446 -3.0107,-1.79639a95.4092,95.4092 0 0 1 3.0107,1.79639z" id="svg_1"/>
  <g stroke="null" id="svg_3">
   <g stroke="null" id="svg_4">
    <title stroke="null">Layer 1</title>
    <path stroke="null" d="m466.20414,211.46906a122.25813,122.25813 0 0 0 -10.50747,-100.4208a123.65138,123.65138 0 0 0 -133.18164,-59.32945a122.25813,122.25813 0 0 0 -92.21607,-41.1107a123.66106,123.66106 0 0 0 -117.96227,85.61746a122.29683,122.29683 0 0 0 -81.75698,59.3101a123.67074,123.67074 0 0 0 15.2097,144.99529a122.25813,122.25813 0 0 0 10.50747,100.4208a123.66106,123.66106 0 0 0 133.18164,59.32945a122.25813,122.25813 0 0 0 92.21607,41.1107a123.66106,123.66106 0 0 0 118.00096,-85.66584a122.29683,122.29683 0 0 0 81.75698,-59.3101a123.67074,123.67074 0 0 0 -15.24841,-144.94691l0.00001,0zm-184.47085,257.83928a91.71295,91.71295 0 0 1 -58.8747,-21.28584c0.74501,-0.40636 2.05118,-1.12235 2.90262,-1.64482l97.72136,-56.44619a15.88698,15.88698 0 0 0 8.03056,-13.90352l0,-137.76777l41.30421,23.84981a1.47066,1.47066 0 0 1 0.80306,1.13202l0,114.09211a92.09029,92.09029 0 0 1 -91.88711,91.97418l0,0.00001zm-197.61002,-84.39835a91.66457,91.66457 0 0 1 -10.97188,-61.63219c0.72566,0.43539 1.99312,1.20942 2.90262,1.73189l97.72136,56.44619a15.90633,15.90633 0 0 0 16.05147,0l119.30714,-68.88873l0,47.69963a1.48033,1.48033 0 0 1 -0.59019,1.26747l-98.78566,57.03638a92.07094,92.07094 0 0 1 -125.63485,-33.66065l-0.00001,0l0,-0.00001zm-25.70749,-213.3325a91.63555,91.63555 0 0 1 47.87379,-40.327c0,0.84175 -0.04838,2.33177 -0.04838,3.36703l0,112.89236a15.87731,15.87731 0 0 0 8.02088,13.89384l119.30714,68.87905l-41.30421,23.84981a1.48033,1.48033 0 0 1 -1.39326,0.12578l-98.79533,-57.08476a92.07094,92.07094 0 0 1 -33.66065,-125.59614l0,0.00001l0,0.00001zm339.35438,78.97047l-119.30714,-68.88873l41.30421,-23.84014a1.48033,1.48033 0 0 1 1.39326,-0.12578l98.79533,57.03638a91.99353,91.99353 0 0 1 -14.21313,165.98119c0,-0.85143 0,-2.34144 0,-3.3767l0,-112.89236a15.86762,15.86762 0 0 0 -7.97252,-13.89384l0,-0.00001l0,-0.00001zm41.1107,-61.87407c-0.72566,-0.44507 -1.99312,-1.20942 -2.90262,-1.73189l-97.72136,-56.44619a15.92567,15.92567 0 0 0 -16.05147,0l-119.30714,68.88873l0,-47.69963a1.48033,1.48033 0 0 1 0.59019,-1.26747l98.78566,-56.98801a91.98386,91.98386 0 0 1 136.60673,95.24447l0.00001,0zm-258.43915,85.01759l-41.31388,-23.84981a1.47066,1.47066 0 0 1 -0.80306,-1.13202l0,-114.09211a91.98386,91.98386 0 0 1 150.83921,-70.6303c-0.74501,0.40636 -2.0415,1.12235 -2.90262,1.64482l-97.72136,56.44619a15.87731,15.87731 0 0 0 -8.03056,13.89384l-0.06773,137.7194l0,-0.00001zm22.43721,-48.37691l53.1372,-30.69032l53.1372,30.67096l0,61.36128l-53.1372,30.67096l-53.1372,-30.67096l0,-61.34193l0,0.00001z" id="svg_2"/>
   </g>
  </g>
 </g>

</svg>