<svg width="512" height="512" xmlns="http://www.w3.org/2000/svg">
 <g>
  <title>Layer 1</title>
  <path id="svg_1" d="m472.50809,209.6025a126.36,126.36 0 0 0 -10.86,-103.79a127.8,127.8 0 0 0 -137.65,-61.32a126.36,126.36 0 0 0 -95.31,-42.49a127.81,127.81 0 0 0 -121.92,88.49a126.4,126.4 0 0 0 -84.5,61.3a127.82,127.82 0 0 0 15.72,149.86a126.36,126.36 0 0 0 10.86,103.79a127.81,127.81 0 0 0 137.65,61.32a126.36,126.36 0 0 0 95.31,42.49a127.81,127.81 0 0 0 121.96,-88.54a126.4,126.4 0 0 0 84.5,-61.3a127.82,127.82 0 0 0 -15.76,-149.81zm-190.66,266.49a94.79,94.79 0 0 1 -60.85,-22c0.77,-0.42 2.12,-1.16 3,-1.7l101,-58.34a16.42,16.42 0 0 0 8.3,-14.37l0,-142.39l42.69,24.65a1.52,1.52 0 0 1 0.83,1.17l0,117.92a95.18,95.18 0 0 1 -94.97,95.06zm-204.24,-87.23a94.74,94.74 0 0 1 -11.34,-63.7c0.75,0.45 2.06,1.25 3,1.79l101,58.34a16.44,16.44 0 0 0 16.59,0l123.31,-71.2l0,49.3a1.53,1.53 0 0 1 -0.61,1.31l-102.1,58.95a95.16,95.16 0 0 1 -129.85,-34.79zm-26.57,-220.49a94.71,94.71 0 0 1 49.48,-41.68c0,0.87 -0.05,2.41 -0.05,3.48l0,116.68a16.41,16.41 0 0 0 8.29,14.36l123.31,71.19l-42.69,24.65a1.53,1.53 0 0 1 -1.44,0.13l-102.11,-59a95.16,95.16 0 0 1 -34.79,-129.81zm350.74,81.62l-123.31,-71.2l42.69,-24.64a1.53,1.53 0 0 1 1.44,-0.13l102.11,58.95a95.08,95.08 0 0 1 -14.69,171.55c0,-0.88 0,-2.42 0,-3.49l0,-116.68a16.4,16.4 0 0 0 -8.24,-14.36zm42.49,-63.95c-0.75,-0.46 -2.06,-1.25 -3,-1.79l-101,-58.34a16.46,16.46 0 0 0 -16.59,0l-123.31,71.2l0,-49.3a1.53,1.53 0 0 1 0.61,-1.31l102.1,-58.9a95.07,95.07 0 0 1 141.19,98.44zm-267.11,87.87l-42.7,-24.65a1.52,1.52 0 0 1 -0.83,-1.17l0,-117.92a95.07,95.07 0 0 1 155.9,-73c-0.77,0.42 -2.11,1.16 -3,1.7l-101,58.34a16.41,16.41 0 0 0 -8.3,14.36l-0.07,142.34zm23.19,-50l54.92,-31.72l54.92,31.7l0,63.42l-54.92,31.7l-54.92,-31.7l0,-63.4z"/>
 </g>

</svg>