<svg width="512" height="512" xmlns="http://www.w3.org/2000/svg">
 <g>
  <title>Layer 1</title>
  <path id="svg_1" d="m474.03181,209.81079a126.81084,126.81084 0 0 0 -10.89875,-104.16031a128.25597,128.25597 0 0 0 -138.14112,-61.53878a126.81084,126.81084 0 0 0 -95.65005,-42.6416a128.26601,128.26601 0 0 0 -122.35499,88.80572a126.85098,126.85098 0 0 0 -84.80148,61.51871a128.27604,128.27604 0 0 0 15.77609,150.39468a126.81084,126.81084 0 0 0 10.89875,104.16031a128.26601,128.26601 0 0 0 138.14112,61.53878a126.81084,126.81084 0 0 0 95.65005,42.6416a128.26601,128.26601 0 0 0 122.39514,-88.8559a126.85098,126.85098 0 0 0 84.80148,-61.51871a128.27604,128.27604 0 0 0 -15.81623,-150.3445l-0.00001,0zm-407.68941,115.9723c0.75268,0.45161 2.06735,1.25446 3.0107,1.79639l-3.0107,-1.79639zm34.3722,-199.17811c0,0.8731 -0.05018,2.4186 -0.05018,3.49242l0.05018,-3.49242zm310.60425,258.7499c0,-0.88314 0,-2.42863 0,-3.50245l0,3.50245zm34.3722,-199.18815c-0.75268,-0.46164 -2.06735,-1.25446 -3.0107,-1.79639a95.4092,95.4092 0 0 1 3.0107,1.79639z" fill="#ffffff" stroke="null"/>
  <g stroke="null" id="svg_3">
   <g stroke="null" id="svg_4">
    <title stroke="null">Layer 1</title>
    <path stroke="null" id="svg_2" d="m457.52262,213.30819a117.20881,117.20881 0 0 0 -10.07351,-96.27337a118.54452,118.54452 0 0 0 -127.68117,-56.87912a117.20881,117.20881 0 0 0 -88.4075,-39.41281a118.5538,118.5538 0 0 0 -113.09037,82.08142a117.24591,117.24591 0 0 0 -78.38038,56.86056a118.56308,118.56308 0 0 0 14.58153,139.00692a117.20881,117.20881 0 0 0 10.07351,96.27337a118.5538,118.5538 0 0 0 127.68117,56.87912a117.20881,117.20881 0 0 0 88.4075,39.41281a118.5538,118.5538 0 0 0 113.12746,-82.1278a117.24591,117.24591 0 0 0 78.38038,-56.86056a118.56308,118.56308 0 0 0 -14.61864,-138.96053l0.00001,0l0.00001,0zm-176.85212,247.1904a87.92516,87.92516 0 0 1 -56.44315,-20.40672c0.71424,-0.38958 1.96647,-1.076 2.78274,-1.57689l93.68542,-54.11494a15.23084,15.23084 0 0 0 7.69889,-13.3293l0,-132.0779l39.59833,22.8648a1.40992,1.40992 0 0 1 0.76989,1.08527l0,109.38005a88.28692,88.28692 0 0 1 -88.09213,88.1756l0,0.00001l0,0.00001zm-189.44863,-80.91266a87.87878,87.87878 0 0 1 -10.51874,-59.08675c0.69569,0.41741 1.9108,1.15947 2.78274,1.66036l93.68542,54.11494a15.24939,15.24939 0 0 0 15.38854,0l114.3797,-66.04359l0,45.72961a1.41919,1.41919 0 0 1 -0.56581,1.21512l-94.70577,54.68075a88.26837,88.26837 0 0 1 -120.44607,-32.27045l-0.00001,0l0,-0.00001l0,0.00002zm-24.64576,-204.52177a87.85096,87.85096 0 0 1 45.89658,-38.66148c0,0.80699 -0.04638,2.23547 -0.04638,3.22797l0,108.22985a15.22157,15.22157 0 0 0 7.68961,13.32002l114.3797,66.03431l-39.59833,22.8648a1.41919,1.41919 0 0 1 -1.33572,0.12059l-94.71504,-54.72713a88.26837,88.26837 0 0 1 -32.27045,-120.40896l0,0.00001l0,0.00001l0.00002,0.00001zm325.33888,75.70895l-114.3797,-66.04359l39.59833,-22.85553a1.41919,1.41919 0 0 1 1.33572,-0.12059l94.71504,54.68075a88.19415,88.19415 0 0 1 -13.62612,159.12609c0,-0.81627 0,-2.24474 0,-3.23724l0,-108.22985a15.21228,15.21228 0 0 0 -7.64325,-13.32002l0,-0.00001l0,-0.00001l-0.00001,0zm39.41281,-59.31864c-0.69569,-0.42669 -1.9108,-1.15947 -2.78274,-1.66036l-93.68542,-54.11494a15.26793,15.26793 0 0 0 -15.38854,0l-114.3797,66.04359l0,-45.72961a1.41919,1.41919 0 0 1 0.56581,-1.21512l94.70577,-54.63438a88.18488,88.18488 0 0 1 130.96481,91.31083l0.00001,0l0,-0.00001zm-247.76549,81.50632l-39.6076,-22.8648a1.40992,1.40992 0 0 1 -0.76989,-1.08527l0,-109.38005a88.18488,88.18488 0 0 1 144.60948,-67.71324c-0.71424,0.38958 -1.95719,1.076 -2.78274,1.57689l-93.68542,54.11494a15.22157,15.22157 0 0 0 -7.69889,13.32002l-0.06493,132.03152l0,-0.00001zm21.51054,-46.37892l50.94261,-29.4228l50.94261,29.40423l0,58.82703l-50.94261,29.40423l-50.94261,-29.40423l0,-58.80848l0,0.00001z"/>
   </g>
  </g>
 </g>

</svg>