<svg width="512" height="512" xmlns="http://www.w3.org/2000/svg">
 <g>
  <title>Layer 1</title>
  <path id="svg_1" d="m473.25666,209.975a126.36,126.36 0 0 0 -10.86,-103.79a127.8,127.8 0 0 0 -137.65,-61.32a126.36,126.36 0 0 0 -95.31,-42.49a127.81,127.81 0 0 0 -121.92,88.49a126.4,126.4 0 0 0 -84.5,61.3a127.82,127.82 0 0 0 15.72,149.86a126.36,126.36 0 0 0 10.86,103.79a127.81,127.81 0 0 0 137.65,61.32a126.36,126.36 0 0 0 95.31,42.49a127.81,127.81 0 0 0 121.96,-88.54a126.4,126.4 0 0 0 84.5,-61.3a127.82,127.82 0 0 0 -15.76,-149.81zm-406.24,115.56c0.75,0.45 2.06,1.25 3,1.79l-3,-1.79zm34.25,-198.47c0,0.87 -0.05,2.41 -0.05,3.48l0.05,-3.48zm309.5,257.83c0,-0.88 0,-2.42 0,-3.49l0,3.49zm34.25,-198.48c-0.75,-0.46 -2.06,-1.25 -3,-1.79a95.07,95.07 0 0 1 3,1.79z" fill="#ffffff"/>
  <g stroke="null" id="svg_3">
   <g stroke="null" id="svg_4">
    <title stroke="null">Layer 1</title>
    <path stroke="null" id="svg_2" d="m440.26682,216.96375a107.17258,107.17258 0 0 0 -9.21094,-88.02978a108.39392,108.39392 0 0 0 -116.74823,-52.00873a107.17258,107.17258 0 0 0 -80.83744,-36.03801a108.4024,108.4024 0 0 0 -103.40679,75.05304a107.20651,107.20651 0 0 0 -71.66891,51.99177a108.41089,108.41089 0 0 0 13.33296,127.10418a107.17258,107.17258 0 0 0 9.21094,88.02978a108.4024,108.4024 0 0 0 116.74823,52.00873a107.17258,107.17258 0 0 0 80.83744,36.03801a108.4024,108.4024 0 0 0 103.44071,-75.09545a107.20651,107.20651 0 0 0 71.66891,-51.99177a108.41089,108.41089 0 0 0 -13.36689,-127.06177zm-161.70881,226.02424a80.3964,80.3964 0 0 1 -51.61009,-18.65936c0.65308,-0.35622 1.79808,-0.98386 2.54446,-1.44186l85.66343,-49.48124a13.92667,13.92667 0 0 0 7.03966,-12.18795l0,-120.76847l36.20764,20.90696a1.28919,1.28919 0 0 1 0.70397,0.99234l0,100.01417a80.72718,80.72718 0 0 1 -80.54907,80.6254l0,0.00001zm-173.22673,-73.98436a80.35399,80.35399 0 0 1 -9.61805,-54.02733c0.63612,0.38167 1.74719,1.06019 2.54446,1.51819l85.66343,49.48124a13.94363,13.94363 0 0 0 14.07086,0l104.58572,-60.38848l0,41.81393a1.29767,1.29767 0 0 1 -0.51737,1.11108l-86.5964,49.99861a80.71022,80.71022 0 0 1 -110.13264,-29.50723l-0.00001,0zm-22.53542,-187.0092a80.32855,80.32855 0 0 1 41.9666,-35.35101c0,0.73789 -0.04241,2.04405 -0.04241,2.95157l0,98.96246a13.91819,13.91819 0 0 0 7.03118,12.17947l104.58572,60.38l-36.20764,20.90696a1.29767,1.29767 0 0 1 -1.22134,0.11026l-86.60488,-50.04102a80.71022,80.71022 0 0 1 -29.50723,-110.09871l0,0.00001zm297.48111,69.22623l-104.58572,-60.38848l36.20764,-20.89848a1.29767,1.29767 0 0 1 1.22134,-0.11026l86.60488,49.99861a80.64236,80.64236 0 0 1 -12.45936,145.50061c0,-0.74637 0,-2.05253 0,-2.96005l0,-98.96246a13.9097,13.9097 0 0 0 -6.98878,-12.17947l0,-0.00001zm36.03801,-54.23937c-0.63612,-0.39015 -1.74719,-1.06019 -2.54446,-1.51819l-85.66343,-49.48124a13.96059,13.96059 0 0 0 -14.07086,0l-104.58572,60.38848l0,-41.81393a1.29767,1.29767 0 0 1 0.51737,-1.11108l86.5964,-49.9562a80.63388,80.63388 0 0 1 119.75069,83.49216l0.00001,0zm-226.55009,74.52719l-36.21612,-20.90696a1.28919,1.28919 0 0 1 -0.70397,-0.99234l0,-100.01417a80.63388,80.63388 0 0 1 132.22701,-61.91516c-0.65308,0.35622 -1.7896,0.98386 -2.54446,1.44186l-85.66343,49.48124a13.91819,13.91819 0 0 0 -7.03966,12.17947l-0.05937,120.72607l0,-0.00001zm19.66866,-42.40764l46.58055,-26.90341l46.58055,26.88644l0,53.78985l-46.58055,26.88644l-46.58055,-26.88644l0,-53.77289l0,0.00001z"/>
   </g>
  </g>
 </g>

</svg>